<svg xmlns="http://www.w3.org/2000/svg" xmlns:xlink="http://www.w3.org/1999/xlink" width="128" zoomAndPan="magnify" viewBox="0 0 96 95.999999" height="128" preserveAspectRatio="xMidYMid meet" version="1.0"><defs><g/><clipPath id="71dec0b4ae"><path d="M 1.277344 1.277344 L 95.027344 1.277344 L 95.027344 95.027344 L 1.277344 95.027344 Z M 1.277344 1.277344 " clip-rule="nonzero"/></clipPath><clipPath id="cf4ecc0897"><path d="M 14 58 L 82 58 L 82 95.027344 L 14 95.027344 Z M 14 58 " clip-rule="nonzero"/></clipPath></defs><g fill="#000000" fill-opacity="1"><g transform="translate(37.316611, 45.992306)"><g><path d="M 3.078125 -5.640625 L 3.078125 0 L 2.328125 0 L 2.328125 -5.640625 L 0.21875 -5.640625 L 0.21875 -6.296875 L 5.1875 -6.296875 L 5.1875 -5.640625 Z M 3.078125 -5.640625 "/></g></g></g><g fill="#000000" fill-opacity="1"><g transform="translate(42.728131, 45.992306)"><g><path d="M 0.953125 -0.609375 L 2.625 -0.609375 L 2.625 -4.03125 L 0.953125 -4.03125 L 0.953125 -4.65625 L 3.359375 -4.65625 L 3.359375 -0.609375 L 4.921875 -0.609375 L 4.921875 0 L 0.953125 0 Z M 3.046875 -5.28125 L 2.578125 -5.484375 L 3.34375 -7.015625 L 4 -6.703125 Z M 3.046875 -5.28125 "/></g></g></g><g fill="#000000" fill-opacity="1"><g transform="translate(48.139651, 45.992306)"><g><path d="M 2.9375 0 C 2.570312 0 2.304688 -0.0976562 2.140625 -0.296875 C 1.984375 -0.492188 1.90625 -0.75 1.90625 -1.0625 L 1.90625 -4.03125 L 0.359375 -4.03125 L 0.359375 -4.65625 L 1.5 -4.65625 C 1.65625 -4.65625 1.765625 -4.6875 1.828125 -4.75 C 1.890625 -4.8125 1.921875 -4.921875 1.921875 -5.078125 L 1.921875 -6.296875 L 2.625 -6.296875 L 2.625 -4.65625 L 4.734375 -4.65625 L 4.734375 -4.03125 L 2.625 -4.03125 L 2.625 -0.609375 L 4.734375 -0.609375 L 4.734375 0 Z M 2.9375 0 "/></g></g></g><g fill="#000000" fill-opacity="1"><g transform="translate(53.551171, 45.992306)"><g><path d="M 3.796875 -0.75 L 3.765625 -0.75 C 3.722656 -0.644531 3.664062 -0.535156 3.59375 -0.421875 C 3.519531 -0.316406 3.429688 -0.222656 3.328125 -0.140625 C 3.222656 -0.0664062 3.097656 -0.0078125 2.953125 0.03125 C 2.804688 0.0820312 2.632812 0.109375 2.4375 0.109375 C 1.957031 0.109375 1.566406 -0.046875 1.265625 -0.359375 C 0.972656 -0.671875 0.828125 -1.109375 0.828125 -1.671875 L 0.828125 -4.65625 L 1.546875 -4.65625 L 1.546875 -1.796875 C 1.546875 -1.367188 1.640625 -1.050781 1.828125 -0.84375 C 2.015625 -0.632812 2.289062 -0.53125 2.65625 -0.53125 C 2.789062 -0.53125 2.925781 -0.546875 3.0625 -0.578125 C 3.207031 -0.617188 3.332031 -0.675781 3.4375 -0.75 C 3.550781 -0.820312 3.640625 -0.910156 3.703125 -1.015625 C 3.765625 -1.128906 3.796875 -1.265625 3.796875 -1.421875 L 3.796875 -4.65625 L 4.53125 -4.65625 L 4.53125 0 L 3.796875 0 Z M 3.796875 -0.75 "/></g></g></g><g fill="#000000" fill-opacity="1"><g transform="translate(58.962691, 45.992306)"><g><path d="M 0.71875 -0.609375 L 2.34375 -0.609375 L 2.34375 -6.0625 L 0.71875 -6.0625 L 0.71875 -6.671875 L 3.0625 -6.671875 L 3.0625 -0.609375 L 4.6875 -0.609375 L 4.6875 0 L 0.71875 0 Z M 0.71875 -0.609375 "/></g></g></g><g fill="#000000" fill-opacity="1"><g transform="translate(64.374211, 45.992306)"><g><path d="M 2.703125 0.109375 C 2.378906 0.109375 2.085938 0.0507812 1.828125 -0.0625 C 1.566406 -0.175781 1.34375 -0.335938 1.15625 -0.546875 C 0.976562 -0.765625 0.835938 -1.019531 0.734375 -1.3125 C 0.640625 -1.613281 0.59375 -1.953125 0.59375 -2.328125 C 0.59375 -2.691406 0.640625 -3.023438 0.734375 -3.328125 C 0.835938 -3.628906 0.976562 -3.882812 1.15625 -4.09375 C 1.34375 -4.3125 1.566406 -4.476562 1.828125 -4.59375 C 2.085938 -4.707031 2.378906 -4.765625 2.703125 -4.765625 C 3.023438 -4.765625 3.316406 -4.707031 3.578125 -4.59375 C 3.835938 -4.476562 4.0625 -4.3125 4.25 -4.09375 C 4.4375 -3.882812 4.578125 -3.628906 4.671875 -3.328125 C 4.765625 -3.023438 4.8125 -2.691406 4.8125 -2.328125 C 4.8125 -1.953125 4.765625 -1.613281 4.671875 -1.3125 C 4.578125 -1.019531 4.4375 -0.765625 4.25 -0.546875 C 4.0625 -0.335938 3.835938 -0.175781 3.578125 -0.0625 C 3.316406 0.0507812 3.023438 0.109375 2.703125 0.109375 Z M 2.703125 -0.515625 C 3.109375 -0.515625 3.429688 -0.632812 3.671875 -0.875 C 3.921875 -1.113281 4.046875 -1.488281 4.046875 -2 L 4.046875 -2.65625 C 4.046875 -3.164062 3.921875 -3.539062 3.671875 -3.78125 C 3.429688 -4.019531 3.109375 -4.140625 2.703125 -4.140625 C 2.296875 -4.140625 1.96875 -4.019531 1.71875 -3.78125 C 1.476562 -3.539062 1.359375 -3.164062 1.359375 -2.65625 L 1.359375 -2 C 1.359375 -1.488281 1.476562 -1.113281 1.71875 -0.875 C 1.96875 -0.632812 2.296875 -0.515625 2.703125 -0.515625 Z M 2.703125 -0.515625 "/></g></g></g><g clip-path="url(#71dec0b4ae)"><path fill="#ff9561" d="M 95.035156 48.15625 C 95.035156 49.691406 94.960938 51.222656 94.808594 52.753906 C 94.660156 54.28125 94.433594 55.796875 94.136719 57.304688 C 93.835938 58.808594 93.464844 60.296875 93.015625 61.765625 C 92.570312 63.234375 92.054688 64.679688 91.46875 66.097656 C 90.878906 67.515625 90.222656 68.902344 89.5 70.257812 C 88.777344 71.609375 87.988281 72.925781 87.136719 74.203125 C 86.28125 75.476562 85.371094 76.710938 84.394531 77.898438 C 83.421875 79.082031 82.390625 80.21875 81.304688 81.304688 C 80.21875 82.390625 79.082031 83.421875 77.898438 84.394531 C 76.710938 85.371094 75.476562 86.28125 74.203125 87.136719 C 72.925781 87.988281 71.609375 88.777344 70.257812 89.5 C 68.902344 90.222656 67.515625 90.878906 66.097656 91.46875 C 64.679688 92.054688 63.234375 92.570312 61.765625 93.015625 C 60.296875 93.464844 58.808594 93.835938 57.304688 94.136719 C 55.796875 94.433594 54.28125 94.660156 52.753906 94.808594 C 51.222656 94.960938 49.691406 95.035156 48.15625 95.035156 C 46.621094 95.035156 45.089844 94.960938 43.5625 94.808594 C 42.035156 94.660156 40.519531 94.433594 39.011719 94.136719 C 37.507812 93.835938 36.019531 93.464844 34.550781 93.015625 C 33.082031 92.570312 31.636719 92.054688 30.21875 91.46875 C 28.800781 90.878906 27.414062 90.222656 26.058594 89.5 C 24.707031 88.777344 23.390625 87.988281 22.113281 87.136719 C 20.835938 86.28125 19.605469 85.371094 18.417969 84.394531 C 17.230469 83.421875 16.09375 82.390625 15.007812 81.304688 C 13.921875 80.21875 12.894531 79.082031 11.921875 77.898438 C 10.945312 76.710938 10.03125 75.476562 9.179688 74.203125 C 8.328125 72.925781 7.539062 71.609375 6.8125 70.257812 C 6.089844 68.902344 5.433594 67.515625 4.847656 66.097656 C 4.261719 64.679688 3.742188 63.234375 3.296875 61.765625 C 2.851562 60.296875 2.480469 58.808594 2.179688 57.304688 C 1.878906 55.796875 1.65625 54.28125 1.503906 52.753906 C 1.355469 51.222656 1.277344 49.691406 1.277344 48.15625 C 1.277344 46.621094 1.355469 45.089844 1.503906 43.5625 C 1.65625 42.035156 1.878906 40.519531 2.179688 39.011719 C 2.480469 37.507812 2.851562 36.019531 3.296875 34.550781 C 3.742188 33.082031 4.261719 31.636719 4.847656 30.21875 C 5.433594 28.800781 6.089844 27.414062 6.8125 26.058594 C 7.539062 24.707031 8.328125 23.390625 9.179688 22.113281 C 10.03125 20.835938 10.945312 19.605469 11.921875 18.417969 C 12.894531 17.230469 13.921875 16.09375 15.007812 15.007812 C 16.09375 13.921875 17.230469 12.894531 18.417969 11.921875 C 19.605469 10.945312 20.835938 10.03125 22.113281 9.179688 C 23.390625 8.328125 24.707031 7.539062 26.058594 6.8125 C 27.414062 6.089844 28.800781 5.433594 30.21875 4.847656 C 31.636719 4.261719 33.082031 3.742188 34.550781 3.296875 C 36.019531 2.851562 37.507812 2.480469 39.011719 2.179688 C 40.519531 1.878906 42.035156 1.65625 43.5625 1.503906 C 45.089844 1.355469 46.621094 1.277344 48.15625 1.277344 C 49.691406 1.277344 51.222656 1.355469 52.753906 1.503906 C 54.28125 1.65625 55.796875 1.878906 57.304688 2.179688 C 58.808594 2.480469 60.296875 2.851562 61.765625 3.296875 C 63.234375 3.742188 64.679688 4.261719 66.097656 4.847656 C 67.515625 5.433594 68.902344 6.089844 70.257812 6.8125 C 71.609375 7.539062 72.925781 8.328125 74.203125 9.179688 C 75.476562 10.03125 76.710938 10.945312 77.898438 11.921875 C 79.082031 12.894531 80.21875 13.921875 81.304688 15.007812 C 82.390625 16.09375 83.421875 17.230469 84.394531 18.417969 C 85.371094 19.605469 86.28125 20.835938 87.136719 22.113281 C 87.988281 23.390625 88.777344 24.707031 89.5 26.058594 C 90.222656 27.414062 90.878906 28.800781 91.46875 30.21875 C 92.054688 31.636719 92.570312 33.082031 93.015625 34.550781 C 93.464844 36.019531 93.835938 37.507812 94.136719 39.011719 C 94.433594 40.519531 94.660156 42.035156 94.808594 43.5625 C 94.960938 45.089844 95.035156 46.621094 95.035156 48.15625 Z M 95.035156 48.15625 " fill-opacity="1" fill-rule="nonzero"/></g><path fill="#002c5c" d="M 60.148438 21.886719 C 57.773438 12.757812 30.644531 9.140625 27.035156 30.898438 C 23.425781 52.652344 10.652344 70.796875 39.453125 75.203125 C 68.253906 79.605469 74.417969 68.949219 72.65625 54.945312 C 70.894531 40.941406 67.636719 21.066406 60.148438 21.886719 Z M 60.148438 21.886719 " fill-opacity="1" fill-rule="nonzero"/><g clip-path="url(#cf4ecc0897)"><path fill="#00669b" d="M 81.8125 80.820312 C 80.722656 81.941406 79.578125 83.007812 78.382812 84.015625 C 77.183594 85.023438 75.941406 85.972656 74.648438 86.855469 C 73.355469 87.738281 72.023438 88.558594 70.652344 89.308594 C 69.277344 90.058594 67.871094 90.738281 66.429688 91.347656 C 64.988281 91.957031 63.519531 92.492188 62.023438 92.957031 C 60.527344 93.417969 59.011719 93.804688 57.480469 94.117188 C 55.945312 94.429688 54.398438 94.660156 52.839844 94.816406 C 51.285156 94.972656 49.722656 95.050781 48.15625 95.050781 C 46.59375 95.050781 45.03125 94.972656 43.472656 94.816406 C 41.917969 94.660156 40.371094 94.429688 38.835938 94.117188 C 37.300781 93.804688 35.789062 93.417969 34.292969 92.957031 C 32.796875 92.492188 31.328125 91.957031 29.886719 91.347656 C 28.445312 90.738281 27.039062 90.058594 25.664062 89.308594 C 24.289062 88.558594 22.957031 87.738281 21.667969 86.855469 C 20.375 85.972656 19.128906 85.023438 17.933594 84.015625 C 16.734375 83.007812 15.59375 81.941406 14.503906 80.820312 C 15.195312 79.175781 16.007812 77.589844 16.9375 76.0625 C 17.863281 74.535156 18.898438 73.085938 20.039062 71.710938 C 21.179688 70.335938 22.414062 69.054688 23.742188 67.859375 C 25.070312 66.667969 26.476562 65.574219 27.964844 64.589844 C 29.457031 63.601562 31.007812 62.730469 32.625 61.96875 C 34.242188 61.210938 35.902344 60.574219 37.613281 60.058594 C 39.324219 59.542969 41.0625 59.15625 42.828125 58.894531 C 44.59375 58.632812 46.371094 58.503906 48.15625 58.503906 C 49.945312 58.503906 51.71875 58.632812 53.488281 58.894531 C 55.253906 59.15625 56.992188 59.542969 58.703125 60.058594 C 60.410156 60.574219 62.074219 61.210938 63.691406 61.96875 C 65.308594 62.730469 66.859375 63.601562 68.347656 64.589844 C 69.835938 65.574219 71.246094 66.667969 72.574219 67.859375 C 73.902344 69.054688 75.136719 70.335938 76.277344 71.710938 C 77.417969 73.085938 78.453125 74.535156 79.378906 76.0625 C 80.304688 77.589844 81.117188 79.175781 81.8125 80.820312 Z M 81.8125 80.820312 " fill-opacity="1" fill-rule="nonzero"/></g><path fill="#ff9561" d="M 48.140625 48.15625 C 48.574219 48.15625 49 48.199219 49.425781 48.285156 C 49.851562 48.367188 50.265625 48.496094 50.664062 48.660156 C 51.066406 48.824219 51.445312 49.027344 51.804688 49.269531 C 52.167969 49.511719 52.5 49.785156 52.808594 50.089844 C 53.113281 50.398438 53.386719 50.730469 53.628906 51.089844 C 53.867188 51.453125 54.070312 51.832031 54.238281 52.230469 C 54.402344 52.632812 54.527344 53.046875 54.613281 53.46875 C 54.699219 53.894531 54.738281 54.324219 54.738281 54.757812 L 54.738281 60.582031 C 54.738281 61.015625 54.699219 61.441406 54.613281 61.867188 C 54.527344 62.292969 54.402344 62.707031 54.238281 63.105469 C 54.070312 63.507812 53.867188 63.886719 53.628906 64.246094 C 53.386719 64.609375 53.113281 64.941406 52.808594 65.246094 C 52.5 65.554688 52.167969 65.828125 51.804688 66.070312 C 51.445312 66.308594 51.066406 66.511719 50.664062 66.679688 C 50.265625 66.84375 49.851562 66.96875 49.425781 67.054688 C 49 67.140625 48.574219 67.179688 48.140625 67.179688 C 47.707031 67.179688 47.277344 67.140625 46.851562 67.054688 C 46.425781 66.96875 46.011719 66.84375 45.613281 66.679688 C 45.210938 66.511719 44.832031 66.308594 44.472656 66.070312 C 44.113281 65.828125 43.777344 65.554688 43.472656 65.246094 C 43.164062 64.941406 42.890625 64.609375 42.652344 64.246094 C 42.410156 63.886719 42.207031 63.507812 42.039062 63.105469 C 41.875 62.707031 41.75 62.292969 41.664062 61.867188 C 41.582031 61.441406 41.539062 61.015625 41.539062 60.582031 L 41.539062 54.757812 C 41.539062 54.324219 41.582031 53.894531 41.664062 53.46875 C 41.75 53.046875 41.875 52.632812 42.039062 52.230469 C 42.207031 51.832031 42.410156 51.453125 42.652344 51.089844 C 42.890625 50.730469 43.164062 50.398438 43.472656 50.089844 C 43.777344 49.785156 44.113281 49.511719 44.472656 49.269531 C 44.832031 49.027344 45.210938 48.824219 45.613281 48.660156 C 46.011719 48.496094 46.425781 48.367188 46.851562 48.285156 C 47.277344 48.199219 47.707031 48.15625 48.140625 48.15625 Z M 48.140625 48.15625 " fill-opacity="1" fill-rule="nonzero"/><path fill="#ff9561" d="M 36.109375 44 C 36.109375 44.273438 36.082031 44.546875 36.027344 44.8125 C 35.976562 45.082031 35.894531 45.34375 35.792969 45.59375 C 35.6875 45.847656 35.558594 46.085938 35.40625 46.3125 C 35.253906 46.542969 35.082031 46.75 34.890625 46.945312 C 34.695312 47.136719 34.484375 47.3125 34.257812 47.460938 C 34.03125 47.613281 33.789062 47.742188 33.539062 47.847656 C 33.285156 47.953125 33.027344 48.03125 32.757812 48.085938 C 32.488281 48.136719 32.21875 48.164062 31.945312 48.164062 C 31.671875 48.164062 31.402344 48.136719 31.132812 48.085938 C 30.863281 48.03125 30.605469 47.953125 30.351562 47.847656 C 30.101562 47.742188 29.859375 47.613281 29.632812 47.460938 C 29.40625 47.3125 29.195312 47.136719 29.003906 46.945312 C 28.808594 46.75 28.636719 46.542969 28.484375 46.3125 C 28.332031 46.085938 28.203125 45.847656 28.101562 45.59375 C 27.996094 45.34375 27.917969 45.082031 27.863281 44.8125 C 27.808594 44.546875 27.78125 44.273438 27.78125 44 C 27.78125 43.726562 27.808594 43.457031 27.863281 43.191406 C 27.917969 42.921875 27.996094 42.660156 28.101562 42.410156 C 28.203125 42.15625 28.332031 41.917969 28.484375 41.6875 C 28.636719 41.460938 28.808594 41.25 29.003906 41.058594 C 29.195312 40.863281 29.40625 40.691406 29.632812 40.539062 C 29.859375 40.390625 30.101562 40.261719 30.351562 40.15625 C 30.605469 40.050781 30.863281 39.972656 31.132812 39.917969 C 31.402344 39.867188 31.671875 39.839844 31.945312 39.839844 C 32.21875 39.839844 32.488281 39.867188 32.757812 39.917969 C 33.027344 39.972656 33.285156 40.050781 33.539062 40.15625 C 33.789062 40.261719 34.03125 40.390625 34.257812 40.539062 C 34.484375 40.691406 34.695312 40.863281 34.890625 41.058594 C 35.082031 41.25 35.253906 41.460938 35.40625 41.6875 C 35.558594 41.917969 35.6875 42.15625 35.792969 42.410156 C 35.894531 42.660156 35.976562 42.921875 36.027344 43.191406 C 36.082031 43.457031 36.109375 43.726562 36.109375 44 Z M 36.109375 44 " fill-opacity="1" fill-rule="nonzero"/><path fill="#ff9561" d="M 68.109375 44 C 68.109375 44.273438 68.082031 44.546875 68.027344 44.8125 C 67.976562 45.082031 67.894531 45.34375 67.792969 45.59375 C 67.6875 45.847656 67.558594 46.085938 67.40625 46.3125 C 67.253906 46.542969 67.082031 46.75 66.890625 46.945312 C 66.695312 47.136719 66.484375 47.3125 66.257812 47.460938 C 66.03125 47.613281 65.789062 47.742188 65.539062 47.847656 C 65.285156 47.953125 65.027344 48.03125 64.757812 48.085938 C 64.488281 48.136719 64.21875 48.164062 63.945312 48.164062 C 63.671875 48.164062 63.402344 48.136719 63.132812 48.085938 C 62.867188 48.03125 62.605469 47.953125 62.351562 47.847656 C 62.101562 47.742188 61.859375 47.613281 61.632812 47.460938 C 61.40625 47.3125 61.195312 47.136719 61.003906 46.945312 C 60.808594 46.75 60.636719 46.542969 60.484375 46.3125 C 60.332031 46.085938 60.203125 45.847656 60.101562 45.59375 C 59.996094 45.34375 59.917969 45.082031 59.863281 44.8125 C 59.808594 44.546875 59.78125 44.273438 59.78125 44 C 59.78125 43.726562 59.808594 43.457031 59.863281 43.191406 C 59.917969 42.921875 59.996094 42.660156 60.101562 42.410156 C 60.203125 42.15625 60.332031 41.917969 60.484375 41.6875 C 60.636719 41.460938 60.808594 41.25 61.003906 41.058594 C 61.195312 40.863281 61.40625 40.691406 61.632812 40.539062 C 61.859375 40.390625 62.101562 40.261719 62.351562 40.15625 C 62.605469 40.050781 62.867188 39.972656 63.132812 39.917969 C 63.402344 39.867188 63.671875 39.839844 63.945312 39.839844 C 64.21875 39.839844 64.488281 39.867188 64.757812 39.917969 C 65.027344 39.972656 65.285156 40.050781 65.539062 40.15625 C 65.789062 40.261719 66.03125 40.390625 66.257812 40.539062 C 66.484375 40.691406 66.695312 40.863281 66.890625 41.058594 C 67.082031 41.25 67.253906 41.460938 67.40625 41.6875 C 67.558594 41.917969 67.6875 42.15625 67.792969 42.410156 C 67.894531 42.660156 67.976562 42.921875 68.027344 43.191406 C 68.082031 43.457031 68.109375 43.726562 68.109375 44 Z M 68.109375 44 " fill-opacity="1" fill-rule="nonzero"/><path fill="#ffc9ac" d="M 48.15625 21.886719 C 48.6875 21.886719 49.21875 21.914062 49.746094 21.964844 C 50.273438 22.019531 50.800781 22.097656 51.320312 22.199219 C 51.839844 22.304688 52.355469 22.433594 52.863281 22.585938 C 53.371094 22.742188 53.871094 22.917969 54.363281 23.121094 C 54.851562 23.324219 55.332031 23.550781 55.800781 23.800781 C 56.269531 24.054688 56.722656 24.324219 57.164062 24.621094 C 57.605469 24.914062 58.03125 25.230469 58.441406 25.566406 C 58.851562 25.90625 59.246094 26.261719 59.621094 26.636719 C 59.996094 27.011719 60.351562 27.40625 60.6875 27.816406 C 61.027344 28.226562 61.34375 28.652344 61.636719 29.09375 C 61.933594 29.535156 62.203125 29.988281 62.453125 30.457031 C 62.707031 30.925781 62.933594 31.40625 63.136719 31.894531 C 63.339844 32.386719 63.515625 32.886719 63.671875 33.394531 C 63.824219 33.902344 63.953125 34.417969 64.058594 34.9375 C 64.160156 35.457031 64.238281 35.984375 64.292969 36.511719 C 64.34375 37.039062 64.371094 37.570312 64.371094 38.101562 L 64.371094 42.292969 C 64.371094 42.820312 64.34375 43.351562 64.292969 43.878906 C 64.238281 44.410156 64.160156 44.933594 64.058594 45.453125 C 63.953125 45.976562 63.824219 46.488281 63.671875 46.996094 C 63.515625 47.503906 63.339844 48.003906 63.136719 48.496094 C 62.933594 48.984375 62.707031 49.464844 62.453125 49.933594 C 62.203125 50.402344 61.933594 50.855469 61.636719 51.296875 C 61.34375 51.738281 61.027344 52.164062 60.6875 52.574219 C 60.351562 52.988281 59.996094 53.378906 59.621094 53.753906 C 59.246094 54.128906 58.851562 54.488281 58.441406 54.824219 C 58.03125 55.160156 57.605469 55.476562 57.164062 55.769531 C 56.722656 56.066406 56.269531 56.339844 55.800781 56.589844 C 55.332031 56.839844 54.851562 57.066406 54.363281 57.269531 C 53.871094 57.472656 53.371094 57.652344 52.863281 57.804688 C 52.355469 57.960938 51.839844 58.089844 51.320312 58.191406 C 50.800781 58.296875 50.273438 58.375 49.746094 58.425781 C 49.21875 58.476562 48.6875 58.503906 48.15625 58.503906 C 47.625 58.503906 47.097656 58.476562 46.566406 58.425781 C 46.039062 58.375 45.515625 58.296875 44.996094 58.191406 C 44.472656 58.089844 43.960938 57.960938 43.453125 57.804688 C 42.941406 57.652344 42.445312 57.472656 41.953125 57.269531 C 41.460938 57.066406 40.984375 56.839844 40.515625 56.589844 C 40.046875 56.339844 39.59375 56.066406 39.152344 55.769531 C 38.707031 55.476562 38.28125 55.160156 37.871094 54.824219 C 37.460938 54.488281 37.070312 54.128906 36.695312 53.753906 C 36.316406 53.378906 35.960938 52.988281 35.625 52.574219 C 35.289062 52.164062 34.972656 51.738281 34.675781 51.296875 C 34.382812 50.855469 34.109375 50.402344 33.859375 49.933594 C 33.609375 49.464844 33.382812 48.984375 33.179688 48.496094 C 32.976562 48.003906 32.796875 47.503906 32.644531 46.996094 C 32.488281 46.488281 32.359375 45.976562 32.257812 45.453125 C 32.152344 44.933594 32.074219 44.410156 32.023438 43.878906 C 31.972656 43.351562 31.945312 42.820312 31.945312 42.292969 L 31.945312 38.101562 C 31.945312 37.570312 31.972656 37.039062 32.023438 36.511719 C 32.074219 35.984375 32.152344 35.457031 32.257812 34.9375 C 32.359375 34.417969 32.488281 33.902344 32.644531 33.394531 C 32.796875 32.886719 32.976562 32.386719 33.179688 31.894531 C 33.382812 31.40625 33.609375 30.925781 33.859375 30.457031 C 34.109375 29.988281 34.382812 29.535156 34.675781 29.09375 C 34.972656 28.652344 35.289062 28.226562 35.625 27.816406 C 35.960938 27.40625 36.316406 27.011719 36.695312 26.636719 C 37.070312 26.261719 37.460938 25.90625 37.871094 25.566406 C 38.28125 25.230469 38.707031 24.914062 39.152344 24.621094 C 39.59375 24.324219 40.046875 24.054688 40.515625 23.800781 C 40.984375 23.550781 41.460938 23.324219 41.953125 23.121094 C 42.445312 22.917969 42.941406 22.742188 43.453125 22.585938 C 43.960938 22.433594 44.472656 22.304688 44.996094 22.199219 C 45.515625 22.097656 46.039062 22.019531 46.566406 21.964844 C 47.097656 21.914062 47.625 21.886719 48.15625 21.886719 Z M 48.15625 21.886719 " fill-opacity="1" fill-rule="nonzero"/><path fill="#002c5c" d="M 31.945312 39.839844 C 53.71875 40.0625 59.78125 27.730469 59.78125 27.730469 C 59.78125 27.730469 60.8125 37.597656 64.371094 40.195312 C 66.230469 29.84375 60.765625 20.421875 46.585938 19.714844 C 32.40625 19.011719 28.578125 35.214844 31.945312 39.839844 Z M 31.945312 39.839844 " fill-opacity="1" fill-rule="nonzero"/></svg>